<svg width="160" height="160" viewBox="0 0 160 160" xmlns="http://www.w3.org/2000/svg">
  <!-- 大梅花 - 填充 -->
  <g transform="translate(37,35)">
    <ellipse cx="0" cy="-4.8" rx="3" ry="4.8" fill="rgba(252, 231, 243, 0.5)" stroke="rgba(249, 168, 212, 0.4)" strokeWidth="1.2" transform="rotate(0)"/>
    <ellipse cx="0" cy="-4.8" rx="3" ry="4.8" fill="rgba(252, 231, 243, 0.5)" stroke="rgba(249, 168, 212, 0.4)" strokeWidth="1.2" transform="rotate(72)"/>
    <ellipse cx="0" cy="-4.8" rx="3" ry="4.8" fill="rgba(252, 231, 243, 0.5)" stroke="rgba(249, 168, 212, 0.4)" strokeWidth="1.2" transform="rotate(144)"/>
    <ellipse cx="0" cy="-4.8" rx="3" ry="4.8" fill="rgba(252, 231, 243, 0.5)" stroke="rgba(249, 168, 212, 0.4)" strokeWidth="1.2" transform="rotate(216)"/>
    <ellipse cx="0" cy="-4.8" rx="3" ry="4.8" fill="rgba(252, 231, 243, 0.5)" stroke="rgba(249, 168, 212, 0.4)" strokeWidth="1.2" transform="rotate(288)"/>
    <circle cx="0" cy="0" r="1.8" fill="rgba(253, 242, 248, 0.8)" stroke="rgba(249, 168, 212, 0.5)" strokeWidth="0.5"/>
  </g>
  
  <!-- 中等梅花 - 轮廓 -->
  <g transform="translate(117,25)">
    <ellipse cx="0" cy="-4" rx="2.5" ry="4" fill="none" stroke="rgba(249, 168, 212, 0.4)" strokeWidth="1.2" transform="rotate(0)"/>
    <ellipse cx="0" cy="-4" rx="2.5" ry="4" fill="none" stroke="rgba(249, 168, 212, 0.4)" strokeWidth="1.2" transform="rotate(72)"/>
    <ellipse cx="0" cy="-4" rx="2.5" ry="4" fill="none" stroke="rgba(249, 168, 212, 0.4)" strokeWidth="1.2" transform="rotate(144)"/>
    <ellipse cx="0" cy="-4" rx="2.5" ry="4" fill="none" stroke="rgba(249, 168, 212, 0.4)" strokeWidth="1.2" transform="rotate(216)"/>
    <ellipse cx="0" cy="-4" rx="2.5" ry="4" fill="none" stroke="rgba(249, 168, 212, 0.4)" strokeWidth="1.2" transform="rotate(288)"/>
    <circle cx="0" cy="0" r="1.5" fill="rgba(253, 242, 248, 0.8)" stroke="rgba(249, 168, 212, 0.5)" strokeWidth="0.5"/>
  </g>
  
  <!-- 小梅花 - 填充 -->
  <g transform="translate(138,78)">
    <ellipse cx="0" cy="-3.2" rx="2" ry="3.2" fill="rgba(252, 231, 243, 0.5)" stroke="rgba(249, 168, 212, 0.4)" strokeWidth="1.2" transform="rotate(0)"/>
    <ellipse cx="0" cy="-3.2" rx="2" ry="3.2" fill="rgba(252, 231, 243, 0.5)" stroke="rgba(249, 168, 212, 0.4)" strokeWidth="1.2" transform="rotate(72)"/>
    <ellipse cx="0" cy="-3.2" rx="2" ry="3.2" fill="rgba(252, 231, 243, 0.5)" stroke="rgba(249, 168, 212, 0.4)" strokeWidth="1.2" transform="rotate(144)"/>
    <ellipse cx="0" cy="-3.2" rx="2" ry="3.2" fill="rgba(252, 231, 243, 0.5)" stroke="rgba(249, 168, 212, 0.4)" strokeWidth="1.2" transform="rotate(216)"/>
    <ellipse cx="0" cy="-3.2" rx="2" ry="3.2" fill="rgba(252, 231, 243, 0.5)" stroke="rgba(249, 168, 212, 0.4)" strokeWidth="1.2" transform="rotate(288)"/>
    <circle cx="0" cy="0" r="1.2" fill="rgba(253, 242, 248, 0.8)" stroke="rgba(249, 168, 212, 0.5)" strokeWidth="0.5"/>
  </g>
  
  <!-- 中等梅花 - 轮廓 -->
  <g transform="translate(46,108)">
    <ellipse cx="0" cy="-4.4" rx="2.75" ry="4.4" fill="none" stroke="rgba(249, 168, 212, 0.4)" strokeWidth="1.2" transform="rotate(0)"/>
    <ellipse cx="0" cy="-4.4" rx="2.75" ry="4.4" fill="none" stroke="rgba(249, 168, 212, 0.4)" strokeWidth="1.2" transform="rotate(144)"/>
    <ellipse cx="0" cy="-4.4" rx="2.75" ry="4.4" fill="none" stroke="rgba(249, 168, 212, 0.4)" strokeWidth="1.2" transform="rotate(216)"/>
    <ellipse cx="0" cy="-4.4" rx="2.75" ry="4.4" fill="none" stroke="rgba(249, 168, 212, 0.4)" strokeWidth="1.2" transform="rotate(288)"/>
    <ellipse cx="0" cy="-4.4" rx="2.75" ry="4.4" fill="none" stroke="rgba(249, 168, 212, 0.4)" strokeWidth="1.2" transform="rotate(72)"/>
    <circle cx="0" cy="0" r="1.65" fill="rgba(253, 242, 248, 0.8)" stroke="rgba(249, 168, 212, 0.5)" strokeWidth="0.5"/>
  </g>
  
  <!-- 小梅花 - 轮廓 -->
  <g transform="translate(122,123)">
    <ellipse cx="0" cy="-2.8" rx="1.75" ry="2.8" fill="none" stroke="rgba(249, 168, 212, 0.35)" strokeWidth="1.1" transform="rotate(0)"/>
    <ellipse cx="0" cy="-2.8" rx="1.75" ry="2.8" fill="none" stroke="rgba(249, 168, 212, 0.35)" strokeWidth="1.1" transform="rotate(72)"/>
    <ellipse cx="0" cy="-2.8" rx="1.75" ry="2.8" fill="none" stroke="rgba(249, 168, 212, 0.35)" strokeWidth="1.1" transform="rotate(144)"/>
    <ellipse cx="0" cy="-2.8" rx="1.75" ry="2.8" fill="none" stroke="rgba(249, 168, 212, 0.35)" strokeWidth="1.1" transform="rotate(216)"/>
    <ellipse cx="0" cy="-2.8" rx="1.75" ry="2.8" fill="none" stroke="rgba(249, 168, 212, 0.35)" strokeWidth="1.1" transform="rotate(288)"/>
    <circle cx="0" cy="0" r="1.05" fill="rgba(253, 242, 248, 0.8)" stroke="rgba(249, 168, 212, 0.5)" strokeWidth="0.5"/>
  </g>
  
  <!-- 边缘梅花用于无缝拼接 -->
  <g transform="translate(9,83)">
    <ellipse cx="0" cy="-3.6" rx="2.25" ry="3.6" fill="rgba(252, 231, 243, 0.4)" stroke="rgba(249, 168, 212, 0.35)" strokeWidth="1.1" transform="rotate(0)"/>
    <ellipse cx="0" cy="-3.6" rx="2.25" ry="3.6" fill="rgba(252, 231, 243, 0.4)" stroke="rgba(249, 168, 212, 0.35)" strokeWidth="1.1" transform="rotate(72)"/>
    <ellipse cx="0" cy="-3.6" rx="2.25" ry="3.6" fill="rgba(252, 231, 243, 0.4)" stroke="rgba(249, 168, 212, 0.35)" strokeWidth="1.1" transform="rotate(144)"/>
    <ellipse cx="0" cy="-3.6" rx="2.25" ry="3.6" fill="rgba(252, 231, 243, 0.4)" stroke="rgba(249, 168, 212, 0.35)" strokeWidth="1.1" transform="rotate(216)"/>
    <ellipse cx="0" cy="-3.6" rx="2.25" ry="3.6" fill="rgba(252, 231, 243, 0.4)" stroke="rgba(249, 168, 212, 0.35)" strokeWidth="1.1" transform="rotate(288)"/>
    <circle cx="0" cy="0" r="1.35" fill="rgba(253, 242, 248, 0.8)" stroke="rgba(249, 168, 212, 0.5)" strokeWidth="0.5"/>
  </g>
  
  <g transform="translate(151,12)">
    <ellipse cx="0" cy="-2.4" rx="1.5" ry="2.4" fill="none" stroke="rgba(249, 168, 212, 0.3)" strokeWidth="1" transform="rotate(0)"/>
    <ellipse cx="0" cy="-2.4" rx="1.5" ry="2.4" fill="none" stroke="rgba(249, 168, 212, 0.3)" strokeWidth="1" transform="rotate(72)"/>
    <ellipse cx="0" cy="-2.4" rx="1.5" ry="2.4" fill="none" stroke="rgba(249, 168, 212, 0.3)" strokeWidth="1" transform="rotate(144)"/>
    <ellipse cx="0" cy="-2.4" rx="1.5" ry="2.4" fill="none" stroke="rgba(249, 168, 212, 0.3)" strokeWidth="1" transform="rotate(216)"/>
    <ellipse cx="0" cy="-2.4" rx="1.5" ry="2.4" fill="none" stroke="rgba(249, 168, 212, 0.3)" strokeWidth="1" transform="rotate(288)"/>
    <circle cx="0" cy="0" r="0.9" fill="rgba(253, 242, 248, 0.8)" stroke="rgba(249, 168, 212, 0.5)" strokeWidth="0.5"/>
  </g>
  
  <!-- 小装饰点 - 花蕾 -->
  <circle cx="60" cy="40" r="2" fill="rgba(249, 168, 212, 0.3)" />
  <circle cx="85" cy="65" r="1.5" fill="rgba(249, 168, 212, 0.35)" />
  <circle cx="70" cy="130" r="2" fill="rgba(249, 168, 212, 0.25)" />
  <circle cx="120" cy="45" r="1" fill="rgba(249, 168, 212, 0.4)" />
  <circle cx="25" cy="140" r="1.5" fill="rgba(249, 168, 212, 0.3)" />
  <circle cx="140" cy="95" r="1" fill="rgba(249, 168, 212, 0.35)" />
  <circle cx="15" cy="50" r="1.5" fill="rgba(249, 168, 212, 0.25)" />
  <circle cx="95" cy="85" r="1" fill="rgba(249, 168, 212, 0.3)" />
  <circle cx="50" cy="110" r="1.5" fill="rgba(249, 168, 212, 0.3)" />
  <circle cx="110" cy="25" r="1" fill="rgba(249, 168, 212, 0.35)" />
</svg>