<svg width="160" height="160" viewBox="0 0 160 160" xmlns="http://www.w3.org/2000/svg">
  <!-- 大星星 - 填充 -->
  <polygon
    points="12,2 15.09,8.26 22,9 17,14.74 18.18,21.02 12,17.77 5.82,21.02 7,14.74 2,9 8.91,8.26"
    fill="rgba(147, 197, 253, 0.35)" stroke="rgba(147, 197, 253, 0.6)" strokeWidth="1.2"
    transform="translate(25,20)" />

  <!-- 中等星星 - 轮廓 -->
  <polygon
    points="10,2 12.27,6.91 17.5,7.5 14.25,11.09 14.95,16.5 10,13.82 5.05,16.5 5.75,11.09 2.5,7.5 7.73,6.91"
    fill="none" stroke="rgba(147, 197, 253, 0.5)" strokeWidth="1.2"
    transform="translate(100,15)" />

  <!-- 小星星 - 填充 -->
  <polygon
    points="8,2 9.64,5.72 13.5,6.25 10.75,9.37 11.27,13.25 8,11.39 4.73,13.25 5.25,9.37 2.5,6.25 6.36,5.72"
    fill="rgba(147, 197, 253, 0.4)" stroke="rgba(147, 197, 253, 0.6)" strokeWidth="1.1"
    transform="translate(130,65)" />

  <!-- 中等星星 - 轮廓 -->
  <polygon
    points="11,2 13.45,7.55 19.5,8.25 15.75,12.45 16.45,18.75 11,15.88 5.55,18.75 6.25,12.45 2.5,8.25 8.55,7.55"
    fill="none" stroke="rgba(147, 197, 253, 0.5)" strokeWidth="1.2"
    transform="translate(35,95)" />

  <!-- 小星星 - 轮廓 -->
  <polygon
    points="7,2 8.18,5.09 11.5,5.5 9.25,8.09 9.73,11.5 7,9.82 4.27,11.5 4.75,8.09 2.5,5.5 5.82,5.09"
    fill="none" stroke="rgba(147, 197, 253, 0.45)" strokeWidth="1.1"
    transform="translate(115,110)" />

  <!-- 边缘星星用于无缝拼接 -->
  <polygon
    points="9,2 10.64,5.72 14.5,6.25 11.75,9.37 12.27,13.25 9,11.39 5.73,13.25 6.25,9.37 3.5,6.25 7.36,5.72"
    fill="rgba(147, 197, 253, 0.3)" stroke="rgba(147, 197, 253, 0.5)" strokeWidth="1.1"
    transform="translate(0,70)" />

  <polygon
    points="6,2 6.82,4.45 9.5,4.75 7.75,6.95 8.09,9.75 6,8.63 3.91,9.75 4.25,6.95 2.5,4.75 5.18,4.45"
    fill="none" stroke="rgba(147, 197, 253, 0.4)" strokeWidth="1"
    transform="translate(145,5)" />

  <!-- 小装饰点 -->
  <circle cx="60" cy="40" r="2" fill="rgba(147, 197, 253, 0.4)" />
  <circle cx="85" cy="65" r="1.5" fill="rgba(147, 197, 253, 0.5)" />
  <circle cx="70" cy="130" r="2" fill="rgba(147, 197, 253, 0.35)" />
  <circle cx="120" cy="45" r="1" fill="rgba(147, 197, 253, 0.6)" />
  <circle cx="25" cy="140" r="1.5" fill="rgba(147, 197, 253, 0.4)" />
  <circle cx="140" cy="95" r="1" fill="rgba(147, 197, 253, 0.5)" />
  <circle cx="15" cy="50" r="1.5" fill="rgba(147, 197, 253, 0.35)" />
  <circle cx="95" cy="85" r="1" fill="rgba(147, 197, 253, 0.45)" />
  <circle cx="50" cy="110" r="1.5" fill="rgba(147, 197, 253, 0.4)" />
  <circle cx="110" cy="25" r="1" fill="rgba(147, 197, 253, 0.5)" />
</svg>