<?xml version="1.0" encoding="UTF-8"?>
<svg width="400" height="400" viewBox="0 0 400 400" xmlns="http://www.w3.org/2000/svg">
  <defs>
    <!-- 樱花图案定义 -->
    <g id="sakura" fill="#ea77b0">
      <!-- 花瓣 -->
      <path d="M0,0 C-8,-16 -16,-8 -16,0 C-8,8 0,8 0,0 Z" opacity="0.6" transform="rotate(0)"/>
      <path d="M0,0 C-8,-16 -16,-8 -16,0 C-8,8 0,8 0,0 Z" opacity="0.6" transform="rotate(72)"/>
      <path d="M0,0 C-8,-16 -16,-8 -16,0 C-8,8 0,8 0,0 Z" opacity="0.6" transform="rotate(144)"/>
      <path d="M0,0 C-8,-16 -16,-8 -16,0 C-8,8 0,8 0,0 Z" opacity="0.6" transform="rotate(216)"/>
      <path d="M0,0 C-8,-16 -16,-8 -16,0 C-8,8 0,8 0,0 Z" opacity="0.6" transform="rotate(288)"/>
      <!-- 花蕊 -->
      <circle cx="0" cy="0" r="4" opacity="0.8"/>
    </g>
  </defs>

  <!-- 随机分布的樱花 -->
  <!-- 第一组：大樱花 -->
  <g transform="translate(50, 50) scale(1.2)">
    <use href="#sakura" opacity="0.4"/>
  </g>
  <g transform="translate(200, 100) scale(1.5)">
    <use href="#sakura" opacity="0.5"/>
  </g>
  <g transform="translate(350, 150) scale(1.3)">
    <use href="#sakura" opacity="0.45"/>
  </g>
  <g transform="translate(100, 300) scale(1.4)">
    <use href="#sakura" opacity="0.5"/>
  </g>
  <g transform="translate(300, 350) scale(1.2)">
    <use href="#sakura" opacity="0.4"/>
  </g>

  <!-- 第二组：中等樱花 -->
  <g transform="translate(150, 50) scale(0.9)">
    <use href="#sakura" opacity="0.35"/>
  </g>
  <g transform="translate(250, 200) scale(0.8)">
    <use href="#sakura" opacity="0.4"/>
  </g>
  <g transform="translate(50, 250) scale(0.9)">
    <use href="#sakura" opacity="0.35"/>
  </g>
  <g transform="translate(350, 300) scale(0.8)">
    <use href="#sakura" opacity="0.4"/>
  </g>
  <g transform="translate(200, 350) scale(0.9)">
    <use href="#sakura" opacity="0.35"/>
  </g>

  <!-- 第三组：小樱花 -->
  <g transform="translate(80, 120) scale(0.6)">
    <use href="#sakura" opacity="0.3"/>
  </g>
  <g transform="translate(180, 180) scale(0.5)">
    <use href="#sakura" opacity="0.25"/>
  </g>
  <g transform="translate(280, 80) scale(0.6)">
    <use href="#sakura" opacity="0.3"/>
  </g>
  <g transform="translate(120, 280) scale(0.5)">
    <use href="#sakura" opacity="0.25"/>
  </g>
  <g transform="translate(320, 220) scale(0.6)">
    <use href="#sakura" opacity="0.3"/>
  </g>
</svg> 